<svg xmlns="http://www.w3.org/2000/svg" width="21" height="21" viewBox="0 0 21 21">
  <g id="arrow-down-right-square" transform="translate(0.5 0.5)">
    <path id="Path_614" data-name="Path 614" d="M17.5,18.75H2.5A1.25,1.25,0,0,1,1.25,17.5V2.5A1.25,1.25,0,0,1,2.5,1.25h15A1.25,1.25,0,0,1,18.75,2.5v15A1.25,1.25,0,0,1,17.5,18.75ZM2.5,20A2.5,2.5,0,0,1,0,17.5V2.5A2.5,2.5,0,0,1,2.5,0h15A2.5,2.5,0,0,1,20,2.5v15A2.5,2.5,0,0,1,17.5,20Z" fill="#00a85a" stroke="#00a85a" stroke-linecap="round" stroke-linejoin="round" stroke-width="1" fill-rule="evenodd"/>
    <path id="Path_615" data-name="Path 615" d="M19.958,11.248H13.625a.792.792,0,0,0,0,1.583h4.422L11.481,19.4A.793.793,0,1,0,12.6,20.518l6.564-6.567v4.422a.792.792,0,1,0,1.583,0V12.04A.792.792,0,0,0,19.958,11.248Z" transform="translate(-6 -5.999)" fill="#00a85a" stroke="#00a85a" stroke-linecap="round" stroke-linejoin="round" stroke-width="1" fill-rule="evenodd"/>
  </g>
</svg>
