<svg xmlns="http://www.w3.org/2000/svg" width="26.935" height="26.967" viewBox="0 0 26.935 26.967">
  <path id="call" d="M19.083,23.3a8.819,8.819,0,0,1-4.126-1.41,26.826,26.826,0,0,1-6.48-4.859,24.661,24.661,0,0,1-4.865-6.493c-1.727-3.149-1.433-4.8-1.1-5.5A4.391,4.391,0,0,1,4.227,3.19a8.259,8.259,0,0,1,1.343-.715L5.7,2.418a1.251,1.251,0,0,1,1.029-.094,3.013,3.013,0,0,1,.978.752,16.284,16.284,0,0,1,2.445,3.639,3.628,3.628,0,0,1,.479,1.491,2.36,2.36,0,0,1-.6,1.4c-.061.084-.123.164-.181.243-.357.47-.435.606-.383.848a8.916,8.916,0,0,0,2.166,3.22,8.527,8.527,0,0,0,3.175,2.118c.252.054.391-.027.874-.4.069-.053.141-.108.215-.163a2.359,2.359,0,0,1,1.419-.636h0a3.394,3.394,0,0,1,1.494.525A17.893,17.893,0,0,1,22.43,17.8a3.031,3.031,0,0,1,.753.978,1.269,1.269,0,0,1-.094,1.034c-.017.039-.037.082-.057.129a8.3,8.3,0,0,1-.717,1.343A4.385,4.385,0,0,1,20.469,23a3.154,3.154,0,0,1-1.386.3Z" transform="translate(5.85 -2.886) rotate(20)" fill="#eff7f0"/>
</svg>
