<svg xmlns="http://www.w3.org/2000/svg" width="35.583" height="35.404" viewBox="0 0 35.583 35.404">
  <g id="Facebook" transform="translate(-5 -5)" fill="none" stroke-linecap="round" stroke-linejoin="round">
    <path d="M37.583,22.792A14.792,14.792,0,1,0,20.48,37.4V27.067H16.723V22.792H20.48V19.533c0-3.707,2.207-5.754,5.587-5.754a22.764,22.764,0,0,1,3.311.289v3.638H27.513a2.138,2.138,0,0,0-2.41,2.31v2.776h4.1l-.656,4.276H25.1V37.4A14.8,14.8,0,0,0,37.583,22.792Z" stroke="none"/>
    <path d="M 25.10281944274902 37.40432357788086 C 32.17417907714844 36.29376220703125 37.58325958251953 30.17432403564453 37.58325958251953 22.79163360595703 C 37.58325958251953 14.62044334411621 30.96281051635742 8.000003814697266 22.79162979125977 8.000003814697266 C 14.62045001983643 8.000003814697266 8 14.62044334411621 8 22.79163360595703 C 8 30.17432403564453 13.40907955169678 36.29376220703125 20.48044013977051 37.40432357788086 L 20.48044013977051 27.06748390197754 L 16.72287940979004 27.06748390197754 L 16.72287940979004 22.79163360595703 L 20.48044013977051 22.79163360595703 L 20.48044013977051 19.53269386291504 C 20.48044013977051 15.82584381103516 22.6872501373291 13.7782735824585 26.0672607421875 13.7782735824585 C 27.68598937988281 13.7782735824585 29.3786792755127 14.06695365905762 29.3786792755127 14.06695365905762 L 29.3786792755127 17.70521354675293 L 27.51301956176758 17.70521354675293 C 25.67600059509277 17.70521354675293 25.10281944274902 18.84560394287109 25.10281944274902 20.01521301269531 L 25.10281944274902 22.79163360595703 L 29.20511054992676 22.79163360595703 L 28.54903030395508 27.06748390197754 L 25.10281944274902 27.06748390197754 L 25.10281944274902 37.40432357788086 M 25.10275650024414 40.40434265136719 C 24.39287376403809 40.40434265136719 23.70015144348145 40.15220260620117 23.15299034118652 39.68427276611328 C 23.0212345123291 39.57159805297852 22.90050315856934 39.44860076904297 22.79162979125977 39.31705474853516 C 22.6827564239502 39.44860076904297 22.56202507019043 39.57159805297852 22.43026924133301 39.68427276611328 C 21.7637996673584 40.25423431396484 20.88131713867188 40.50407028198242 20.01498985290527 40.36799240112305 C 15.86999988555908 39.71702194213867 12.07075977325439 37.60107421875 9.317150115966797 34.409912109375 C 6.53318977355957 31.18359375 5 27.05747413635254 5 22.79163360595703 C 5 20.39067459106445 5.47068977355957 18.06015396118164 6.398999691009521 15.86482334136963 C 7.29509973526001 13.74565410614014 8.577409744262695 11.84319400787354 10.21029949188232 10.21030330657959 C 11.84319972991943 8.577404022216797 13.74565982818604 7.295093536376953 15.86481952667236 6.399003505706787 C 18.06015968322754 5.470693588256836 20.39066886901855 5.000003814697266 22.79162979125977 5.000003814697266 C 25.19259071350098 5.000003814697266 27.52309989929199 5.470693588256836 29.71843910217285 6.399003505706787 C 31.83760070800781 7.295093536376953 33.74005889892578 8.577404022216797 35.37295913696289 10.21030330657959 C 37.0058479309082 11.84319400787354 38.28815841674805 13.74565410614014 39.18426132202148 15.86482334136963 C 40.11256790161133 18.06015396118164 40.58325958251953 20.39067459106445 40.58325958251953 22.79163360595703 C 40.58325958251953 27.05747413635254 39.05006790161133 31.18359375 36.26610946655273 34.409912109375 C 33.51250076293945 37.60107421875 29.71326065063477 39.71702194213867 25.56826972961426 40.36799240112305 C 25.41318321228027 40.39234924316406 25.25754547119141 40.40434265136719 25.10275650024414 40.40434265136719 Z M 22.58502197265625 24.92955780029297 C 22.65761947631836 25.00102996826172 22.72657775878906 25.07615661621094 22.79162979125977 25.15466690063477 C 22.85668182373047 25.07615661621094 22.92564010620117 25.00102996826172 22.99823760986328 24.92955780029297 C 22.92564010620117 24.85808753967285 22.85668182373047 24.782958984375 22.79162979125977 24.70444869995117 C 22.72657775878906 24.782958984375 22.65761947631836 24.85808753967285 22.58502197265625 24.92955780029297 Z" stroke="none" fill="#fff"/>
  </g>
</svg>
