<svg xmlns="http://www.w3.org/2000/svg" xmlns:xlink="http://www.w3.org/1999/xlink" width="824" height="563" viewBox="0 0 824 563">
  <defs>
    <filter id="Rectangle_292" x="0" y="0" width="824" height="563" filterUnits="userSpaceOnUse">
      <feOffset dy="3" input="SourceAlpha"/>
      <feGaussianBlur stdDeviation="3" result="blur"/>
      <feFlood flood-color="#18a75d" flood-opacity="0.302"/>
      <feComposite operator="in" in2="blur"/>
      <feComposite in="SourceGraphic"/>
    </filter>
    <linearGradient id="linear-gradient" x1="0.5" y1="0.62" x2="0.5" y2="1" gradientUnits="objectBoundingBox">
      <stop offset="0" stop-color="#aace50"/>
      <stop offset="1" stop-color="#22d378" stop-opacity="0"/>
    </linearGradient>
  </defs>
  <g id="Group_842" data-name="Group 842" transform="translate(130.915 -2841)">
    <g transform="matrix(1, 0, 0, 1, -130.92, 2841)" filter="url(#Rectangle_292)">
      <rect id="Rectangle_292-2" data-name="Rectangle 292" width="806" height="545" rx="20" transform="translate(9 6)" fill="#fff"/>
    </g>
    <text id="Customer_Reports" data-name="Customer Reports" transform="translate(-103.915 2882)" fill="#163828" font-size="19" font-family="Raleway-Bold, Raleway" font-weight="700" letter-spacing="0.04em"><tspan x="0" y="0">Customer Reports</tspan></text>
    <g id="Group_837" data-name="Group 837" transform="translate(-104.333 2987.877)">
      <g id="column_chart" data-name="column chart" transform="translate(0 0)">
        <g id="background-Horizontal_line" data-name="background-Horizontal line" transform="translate(26.394 4.65)">
          <line id="Horizontal_line1" data-name="Horizontal line1" x2="745.523" transform="translate(0 350.437)" fill="none" stroke="#ccc" stroke-width="1" stroke-dasharray="4 2"/>
          <line id="Horizontal_line2" data-name="Horizontal line2" x2="745.523" transform="translate(0 262.828)" fill="none" stroke="#ccc" stroke-width="1" stroke-dasharray="4 2"/>
          <line id="Horizontal_line3" data-name="Horizontal line3" x2="745.523" transform="translate(0 175.218)" fill="none" stroke="#ccc" stroke-width="1" stroke-dasharray="4 2"/>
          <line id="Horizontal_line4" data-name="Horizontal line4" x2="745.523" transform="translate(0 87.609)" fill="none" stroke="#ccc" stroke-width="1" stroke-dasharray="4 2"/>
          <line id="Horizontal_line5" data-name="Horizontal line5" x2="745.523" fill="none" stroke="#ccc" stroke-width="1" stroke-dasharray="4 2"/>
        </g>
        <g id="background-Vertical_line" data-name="background-Vertical line" transform="translate(26.846 5.016)">
          <line id="Vertical_line1" data-name="Vertical line1" y2="350.437" transform="translate(0)" fill="none" stroke="#ccc" stroke-width="1" stroke-dasharray="4 2"/>
          <line id="Vertical_line13" data-name="Vertical line13" y2="350.437" transform="translate(744.704)" fill="none" stroke="#ccc" stroke-width="1" stroke-dasharray="4 2"/>
        </g>
        <g id="left-font" transform="translate(0)">
          <text id="_0" data-name="0" transform="translate(12.418 361.123)" fill="#87ac9b" font-size="11" font-family="Raleway-SemiBold, Raleway" font-weight="600"><tspan x="0" y="0">0</tspan></text>
          <text id="_25" data-name="25" transform="translate(5.866 271.712)" fill="#87ac9b" font-size="10" font-family="Raleway-SemiBold, Raleway" font-weight="600"><tspan x="0" y="0">25</tspan></text>
          <text id="_50" data-name="50" transform="translate(6.418 184.123)" fill="#87ac9b" font-size="11" font-family="Raleway-SemiBold, Raleway" font-weight="600"><tspan x="0" y="0">50</tspan></text>
          <text id="_75" data-name="75" transform="translate(5.866 96.493)" fill="#87ac9b" font-size="10" font-family="Raleway-SemiBold, Raleway" font-weight="600"><tspan x="0" y="0">75</tspan></text>
          <text id="_100" data-name="100" transform="translate(0.418 10.123)" fill="#87ac9b" font-size="11" font-family="Raleway-SemiBold, Raleway" font-weight="600"><tspan x="0" y="0">100</tspan></text>
        </g>
        <g id="bottom-font" transform="translate(47.349 364.983)">
          <text id="_1st_Week" data-name="1st Week" transform="translate(0 9)" fill="#87ac9b" font-size="10" font-family="Raleway-SemiBold, Raleway" font-weight="600" letter-spacing="0.03em"><tspan x="0" y="0">1st Week</tspan></text>
          <text id="_2nd_week" data-name="2nd week" transform="translate(61.705 9)" fill="#87ac9b" font-size="10" font-family="Raleway-SemiBold, Raleway" font-weight="600" letter-spacing="0.03em"><tspan x="0" y="0">2nd week</tspan></text>
          <text id="Apr" transform="translate(194.663 8)" fill="#87ac9b" font-size="9" font-family="Raleway-SemiBold, Raleway" font-weight="600" letter-spacing="0.03em"><tspan x="-7" y="0">Apr</tspan></text>
          <text id="May" transform="translate(257.663 9)" fill="#87ac9b" font-size="10" font-family="Raleway-SemiBold, Raleway" font-weight="600" letter-spacing="0.03em"><tspan x="-10" y="0">May</tspan></text>
          <text id="Jun" transform="translate(319.497 9)" fill="#87ac9b" font-size="10" font-family="Raleway-SemiBold, Raleway" font-weight="600" letter-spacing="0.03em"><tspan x="-8" y="0">Jun</tspan></text>
          <text id="Jul" transform="translate(382.069 10.14)" fill="#87ac9b" font-size="11" font-family="Raleway-SemiBold, Raleway" font-weight="600" letter-spacing="0.03em"><tspan x="-8" y="0">Jul</tspan></text>
          <text id="Aug" transform="translate(443.956 9)" fill="#87ac9b" font-size="10" font-family="Raleway-SemiBold, Raleway" font-weight="600" letter-spacing="0.03em"><tspan x="-9" y="0">Aug</tspan></text>
          <text id="Sep" transform="translate(505.789 9)" fill="#87ac9b" font-size="10" font-family="Raleway-SemiBold, Raleway" font-weight="600" letter-spacing="0.03em"><tspan x="-9" y="0">Sep</tspan></text>
          <text id="Oct" transform="translate(567.258 8)" fill="#87ac9b" font-size="9" font-family="Raleway-SemiBold, Raleway" font-weight="600" letter-spacing="0.03em"><tspan x="-7" y="0">Oct</tspan></text>
          <text id="Nov" transform="translate(629.913 9)" fill="#87ac9b" font-size="10" font-family="Raleway-SemiBold, Raleway" font-weight="600" letter-spacing="0.03em"><tspan x="-9" y="0">Nov</tspan></text>
          <text id="Dec" transform="translate(692.085 8)" fill="#87ac9b" font-size="9" font-family="Raleway-SemiBold, Raleway" font-weight="600" letter-spacing="0.03em"><tspan x="-8" y="0">Dec</tspan></text>
        </g>
        <g id="column" transform="translate(44.356 49.935)">
          <g id="data1-column1" transform="translate(0 168.561)" fill="#00a85a" stroke="rgba(0,0,0,0)" stroke-width="1">
            <path d="M5,0H20.66a5,5,0,0,1,5,5V136.956a0,0,0,0,1,0,0H3a3,3,0,0,1-3-3V5A5,5,0,0,1,5,0Z" stroke="none"/>
            <path d="M5,.5H20.66A4.5,4.5,0,0,1,25.16,5V135.956a.5.5,0,0,1-.5.5H3a2.5,2.5,0,0,1-2.5-2.5V5A4.5,4.5,0,0,1,5,.5Z" fill="none"/>
          </g>
          <g id="data1-column2" transform="translate(62.316)" fill="#00a85a" stroke="rgba(0,0,0,0)" stroke-width="1">
            <path d="M5,0H20.66a5,5,0,0,1,5,5V305.518a0,0,0,0,1,0,0H3a3,3,0,0,1-3-3V5A5,5,0,0,1,5,0Z" stroke="none"/>
            <path d="M5,.5H20.66A4.5,4.5,0,0,1,25.16,5V304.518a.5.5,0,0,1-.5.5H3a2.5,2.5,0,0,1-2.5-2.5V5A4.5,4.5,0,0,1,5,.5Z" fill="none"/>
          </g>
          <g id="data1-column3" transform="translate(123.954 154.515)" fill="#00a85a" stroke="rgba(0,0,0,0)" stroke-width="1">
            <path d="M5,0H20.66a5,5,0,0,1,5,5V151a0,0,0,0,1,0,0H3a3,3,0,0,1-3-3V5A5,5,0,0,1,5,0Z" stroke="none"/>
            <path d="M5,.5H20.66A4.5,4.5,0,0,1,25.16,5V150a.5.5,0,0,1-.5.5H3A2.5,2.5,0,0,1,.5,148V5A4.5,4.5,0,0,1,5,.5Z" fill="none"/>
          </g>
          <g id="data1-column4" transform="translate(186.661 140.468)" fill="#00a85a" stroke="rgba(0,0,0,0)" stroke-width="1">
            <path d="M5,0H20.66a5,5,0,0,1,5,5V165.05a0,0,0,0,1,0,0H3a3,3,0,0,1-3-3V5A5,5,0,0,1,5,0Z" stroke="none"/>
            <path d="M5,.5H20.66A4.5,4.5,0,0,1,25.16,5V164.05a.5.5,0,0,1-.5.5H3a2.5,2.5,0,0,1-2.5-2.5V5A4.5,4.5,0,0,1,5,.5Z" fill="none"/>
          </g>
          <g id="data1-column5" transform="translate(248.638 270.401)" fill="#00a85a" stroke="rgba(0,0,0,0)" stroke-width="1">
            <path d="M5,0H20.66a5,5,0,0,1,5,5V35.117a0,0,0,0,1,0,0H3a3,3,0,0,1-3-3V5A5,5,0,0,1,5,0Z" stroke="none"/>
            <path d="M5,.5H20.66A4.5,4.5,0,0,1,25.16,5V34.117a.5.5,0,0,1-.5.5H3a2.5,2.5,0,0,1-2.5-2.5V5A4.5,4.5,0,0,1,5,.5Z" fill="none"/>
          </g>
          <g id="data1-column6" transform="translate(310.615 249.33)" fill="#00a85a" stroke="rgba(0,0,0,0)" stroke-width="1">
            <path d="M5,0H20.66a5,5,0,0,1,5,5V56.187a0,0,0,0,1,0,0H3a3,3,0,0,1-3-3V5A5,5,0,0,1,5,0Z" stroke="none"/>
            <path d="M5,.5H20.66A4.5,4.5,0,0,1,25.16,5V55.187a.5.5,0,0,1-.5.5H3a2.5,2.5,0,0,1-2.5-2.5V5A4.5,4.5,0,0,1,5,.5Z" fill="none"/>
          </g>
          <g id="data1-column7" transform="translate(372.592 228.26)" fill="#00a85a" stroke="rgba(0,0,0,0)" stroke-width="1">
            <path d="M5,0H20.66a5,5,0,0,1,5,5V77.257a0,0,0,0,1,0,0H3a3,3,0,0,1-3-3V5A5,5,0,0,1,5,0Z" stroke="none"/>
            <path d="M5,.5H20.66A4.5,4.5,0,0,1,25.16,5V76.257a.5.5,0,0,1-.5.5H3a2.5,2.5,0,0,1-2.5-2.5V5A4.5,4.5,0,0,1,5,.5Z" fill="none"/>
          </g>
          <g id="data1-column8" transform="translate(434.569 98.328)" fill="#00a85a" stroke="rgba(0,0,0,0)" stroke-width="1">
            <path d="M5,0H20.66a5,5,0,0,1,5,5V207.19a0,0,0,0,1,0,0H3a3,3,0,0,1-3-3V5A5,5,0,0,1,5,0Z" stroke="none"/>
            <path d="M5,.5H20.66A4.5,4.5,0,0,1,25.16,5V206.19a.5.5,0,0,1-.5.5H3a2.5,2.5,0,0,1-2.5-2.5V5A4.5,4.5,0,0,1,5,.5Z" fill="none"/>
          </g>
          <g id="data1-column9" transform="translate(496.546 280.936)" fill="#00a85a" stroke="rgba(0,0,0,0)" stroke-width="1">
            <path d="M5,0H20.66a5,5,0,0,1,5,5V24.582a0,0,0,0,1,0,0H3a3,3,0,0,1-3-3V5A5,5,0,0,1,5,0Z" stroke="none"/>
            <path d="M5,.5H20.66A4.5,4.5,0,0,1,25.16,5V23.582a.5.5,0,0,1-.5.5H3a2.5,2.5,0,0,1-2.5-2.5V5A4.5,4.5,0,0,1,5,.5Z" fill="none"/>
          </g>
          <g id="data1-column10" transform="translate(559.252 119.398)" fill="#00a85a" stroke="rgba(0,0,0,0)" stroke-width="1">
            <path d="M5,0H20.66a5,5,0,0,1,5,5V186.12a0,0,0,0,1,0,0H3a3,3,0,0,1-3-3V5A5,5,0,0,1,5,0Z" stroke="none"/>
            <path d="M5,.5H20.66A4.5,4.5,0,0,1,25.16,5V185.12a.5.5,0,0,1-.5.5H3a2.5,2.5,0,0,1-2.5-2.5V5A4.5,4.5,0,0,1,5,.5Z" fill="none"/>
          </g>
          <g id="data1-column11" transform="translate(620.891 245.819)" fill="#00a85a" stroke="rgba(0,0,0,0)" stroke-width="1">
            <path d="M5,0H20.66a5,5,0,0,1,5,5V59.7a0,0,0,0,1,0,0H3a3,3,0,0,1-3-3V5A5,5,0,0,1,5,0Z" stroke="none"/>
            <path d="M5,.5H20.66A4.5,4.5,0,0,1,25.16,5V58.7a.5.5,0,0,1-.5.5H3A2.5,2.5,0,0,1,.5,56.7V5A4.5,4.5,0,0,1,5,.5Z" fill="none"/>
          </g>
          <g id="data1-column12" transform="translate(683.207 196.655)" fill="#00a85a" stroke="rgba(0,0,0,0)" stroke-width="1">
            <path d="M5,0H20.66a5,5,0,0,1,5,5V108.863a0,0,0,0,1,0,0H3a3,3,0,0,1-3-3V5A5,5,0,0,1,5,0Z" stroke="none"/>
            <path d="M5,.5H20.66A4.5,4.5,0,0,1,25.16,5V107.863a.5.5,0,0,1-.5.5H3a2.5,2.5,0,0,1-2.5-2.5V5A4.5,4.5,0,0,1,5,.5Z" fill="none"/>
          </g>
        </g>
        <text id="_87" data-name="87" transform="translate(118.37 38.34)" fill="#648b7a" font-size="6" font-family="Raleway-SemiBold, Raleway" font-weight="600" letter-spacing="0.03em"><tspan x="-3" y="0">87</tspan></text>
        <text id="_43" data-name="43" transform="translate(178.827 192.854)" fill="#648b7a" font-size="6" font-family="Raleway-SemiBold, Raleway" font-weight="600" letter-spacing="0.03em"><tspan x="-3" y="0">43</tspan></text>
        <text id="_47" data-name="47" transform="translate(241.567 178.808)" fill="#648b7a" font-size="6" font-family="Raleway-SemiBold, Raleway" font-weight="600" letter-spacing="0.03em"><tspan x="-3" y="0">47</tspan></text>
        <text id="_10" data-name="10" transform="translate(303.578 308.741)" fill="#648b7a" font-size="6" font-family="Raleway-SemiBold, Raleway" font-weight="600" letter-spacing="0.03em"><tspan x="-3" y="0">10</tspan></text>
        <text id="_16" data-name="16" transform="translate(364.859 287.67)" fill="#648b7a" font-size="6" font-family="Raleway-SemiBold, Raleway" font-weight="600" letter-spacing="0.03em"><tspan x="-3" y="0">16</tspan></text>
        <text id="_22" data-name="22" transform="translate(427.599 266.6)" fill="#648b7a" font-size="6" font-family="Raleway-SemiBold, Raleway" font-weight="600" letter-spacing="0.03em"><tspan x="-3" y="0">22</tspan></text>
        <text id="_59" data-name="59" transform="translate(490.61 136.668)" fill="#648b7a" font-size="6" font-family="Raleway-SemiBold, Raleway" font-weight="600" letter-spacing="0.03em"><tspan x="-3" y="0">59</tspan></text>
        <text id="_7" data-name="7" transform="translate(551.196 314.276)" fill="#648b7a" font-size="1" font-family="Raleway-SemiBold, Raleway" font-weight="600" letter-spacing="0.03em"><tspan x="0" y="0">7</tspan></text>
        <text id="_39" data-name="39" transform="translate(56.054 206.901)" fill="#648b7a" font-size="6" font-family="Raleway-SemiBold, Raleway" font-weight="600" letter-spacing="0.03em"><tspan x="-3" y="0">39</tspan></text>
        <text id="_53" data-name="53" transform="translate(614.361 157.738)" fill="#648b7a" font-size="6" font-family="Raleway-SemiBold, Raleway" font-weight="600" letter-spacing="0.03em"><tspan x="-3" y="0">53</tspan></text>
        <text id="_17" data-name="17" transform="translate(675.944 284.159)" fill="#648b7a" font-size="6" font-family="Raleway-SemiBold, Raleway" font-weight="600" letter-spacing="0.03em"><tspan x="-3" y="0">17</tspan></text>
        <text id="_31" data-name="31" transform="translate(738.26 234.995)" fill="#648b7a" font-size="6" font-family="Raleway-SemiBold, Raleway" font-weight="600" letter-spacing="0.03em"><tspan x="-3" y="0">31</tspan></text>
      </g>
      <g id="line_chart" data-name="line chart" transform="translate(54.986 47.589)">
        <path id="area-1" d="M10680,7049.65l62.176-172.081,62.179,157.741,62.176-14.34,62.176,132.646,62.177-21.51,62.175-21.51,62.178-132.646,62.176,186.42,62.177-164.91,62.177,129.06,62.176-50.19.008,103.306h-683.939Z" transform="translate(-10678.166 -6875.737)" stroke="rgba(0,0,0,0)" stroke-linejoin="round" stroke-width="1" opacity="0.2" fill="url(#linear-gradient)"/>
        <path id="line-1" d="M10680,7049.65l62.177-172.081,62.178,157.741,62.175-14.34,62.177,132.646,62.176-21.51,62.177-21.51,62.178-132.646,62.174,186.42,62.178-164.91,62.177,129.06,62.176-50.19" transform="translate(-10678.167 -6875.737)" fill="none" stroke="#a9d046" stroke-linecap="round" stroke-linejoin="round" stroke-width="3"/>
        <g id="point">
          <g id="point_39" data-name="point 39" transform="translate(0 172.081)" fill="#fff" stroke="#18a75d" stroke-width="2">
            <circle cx="1.833" cy="1.833" r="1.833" stroke="none"/>
            <circle cx="1.833" cy="1.833" r="2.833" fill="none"/>
          </g>
          <g id="point_87" data-name="point 87" transform="translate(62.516)" fill="#fff" stroke="#18a75d" stroke-width="2">
            <circle cx="1.833" cy="1.833" r="1.833" stroke="none"/>
            <circle cx="1.833" cy="1.833" r="2.833" fill="none"/>
          </g>
          <g id="point_43" data-name="point 43" transform="translate(125.033 157.741)" fill="#fff" stroke="#18a75d" stroke-width="2">
            <circle cx="1.833" cy="1.833" r="1.833" stroke="none"/>
            <circle cx="1.833" cy="1.833" r="2.833" fill="none"/>
          </g>
          <g id="point_47" data-name="point 47" transform="translate(186.529 143.401)" fill="#fff" stroke="#18a75d" stroke-width="2">
            <circle cx="1.833" cy="1.833" r="1.833" stroke="none"/>
            <circle cx="1.833" cy="1.833" r="2.833" fill="none"/>
          </g>
          <g id="point_10" data-name="point 10" transform="translate(248.705 276.046)" fill="#fff" stroke="#18a75d" stroke-width="2">
            <circle cx="1.833" cy="1.833" r="1.833" stroke="none"/>
            <circle cx="1.833" cy="1.833" r="2.833" fill="none"/>
          </g>
          <g id="point_16" data-name="point 16" transform="translate(310.881 254.536)" fill="#fff" stroke="#18a75d" stroke-width="2">
            <circle cx="1.833" cy="1.833" r="1.833" stroke="none"/>
            <circle cx="1.833" cy="1.833" r="2.833" fill="none"/>
          </g>
          <g id="point_22" data-name="point 22" transform="translate(373.058 233.026)" fill="#fff" stroke="#18a75d" stroke-width="2">
            <circle cx="1.833" cy="1.833" r="1.833" stroke="none"/>
            <circle cx="1.833" cy="1.833" r="2.833" fill="none"/>
          </g>
          <g id="point_59" data-name="point 59" transform="translate(435.234 100.381)" fill="#fff" stroke="#18a75d" stroke-width="2">
            <circle cx="1.833" cy="1.833" r="1.833" stroke="none"/>
            <circle cx="1.833" cy="1.833" r="2.833" fill="none"/>
          </g>
          <g id="point_7" data-name="point 7" transform="translate(497.411 286.801)" fill="#fff" stroke="#18a75d" stroke-width="2">
            <circle cx="1.833" cy="1.833" r="1.833" stroke="none"/>
            <circle cx="1.833" cy="1.833" r="2.833" fill="none"/>
          </g>
          <g id="point_53" data-name="point 53" transform="translate(558.907 121.891)" fill="#fff" stroke="#18a75d" stroke-width="2">
            <circle cx="1.833" cy="1.833" r="1.833" stroke="none"/>
            <circle cx="1.833" cy="1.833" r="2.833" fill="none"/>
          </g>
          <g id="point_17" data-name="point 17" transform="translate(621.424 250.951)" fill="#fff" stroke="#18a75d" stroke-width="2">
            <circle cx="1.833" cy="1.833" r="1.833" stroke="none"/>
            <circle cx="1.833" cy="1.833" r="2.833" fill="none"/>
          </g>
          <g id="point_31" data-name="point 31" transform="translate(683.94 200.761)" fill="#fff" stroke="#0e9cff" stroke-width="2">
            <circle cx="1.833" cy="1.833" r="1.833" stroke="none"/>
            <circle cx="1.833" cy="1.833" r="2.833" fill="none"/>
          </g>
        </g>
      </g>
    </g>
    <g id="Group_838" data-name="Group 838" transform="translate(141.858 3162.247)">
      <path id="Union_1" data-name="Union 1" d="M21.721,35.923a10,10,0,0,1-10-10v-.856q-.111-.04-.221-.088l-9.22-4.1a3,3,0,0,1,0-5.482l9.22-4.1q.11-.049.221-.089V10a10,10,0,0,1,10-10H163.189a10,10,0,0,1,10,10V25.923a10,10,0,0,1-10,10Z" transform="translate(0 0)" fill="#163828"/>
      <g id="Group_841" data-name="Group 841" transform="translate(24.363 6.598)">
        <text id="April_2021" data-name="April 2021" transform="translate(34 14.466)" fill="#87ac9b" font-size="14" font-family="Raleway-Medium, Raleway" font-weight="500" letter-spacing="0.03em"><tspan x="-33" y="0">April 2021</tspan></text>
        <text id="_47-2" data-name="47" transform="translate(123.439 15)" fill="#eff7f0" font-size="16" font-family="Raleway-Bold, Raleway" font-weight="700" letter-spacing="0.03em"><tspan x="-9" y="0">47</tspan></text>
      </g>
    </g>
    <g id="Group_839" data-name="Group 839" transform="translate(-103.447 2928.514)">
      <rect id="Rectangle_291" data-name="Rectangle 291" width="219" height="37" rx="10" transform="translate(-0.468 0.486)" fill="#00a85a"/>
      <g id="Group_838-2" data-name="Group 838" transform="translate(11.518 10.632)">
        <text id="New_Customers" data-name="New Customers" transform="translate(0.014 10.854)" fill="#eff7f0" font-size="12" font-family="Raleway-Bold, Raleway" font-weight="700" letter-spacing="0.03em"><tspan x="0" y="0">New Customers</tspan></text>
        <path id="arrowdown" d="M8.894,11.066l4.558,6.15a1.244,1.244,0,0,0,2.116,0l4.558-6.15c.582-.786.106-1.427-1.058-1.427H9.951c-1.164,0-1.641.643-1.058,1.428Z" transform="translate(174.62 -7.21)" fill="#eff7f0"/>
      </g>
    </g>
    <g id="Component_43_7" data-name="Component 43 – 7" transform="translate(393.085 2929)">
      <g id="Rectangle_291-2" data-name="Rectangle 291" transform="translate(0)" fill="none" stroke="#163828" stroke-width="1">
        <rect width="126" height="50" rx="10" stroke="none"/>
        <rect x="0.5" y="0.5" width="125" height="49" rx="9.5" fill="none"/>
      </g>
      <g id="Group_836" data-name="Group 836" transform="translate(-645 16)">
        <path id="arrowdown-2" data-name="arrowdown" d="M8.984,11.586,15.2,19.974a1.7,1.7,0,0,0,2.886,0l6.218-8.389c.794-1.072.145-1.947-1.443-1.947H10.427c-1.587,0-2.238.877-1.443,1.948Z" transform="translate(727.355 -5.638)" fill="#163828"/>
        <text id="Weeks" transform="translate(691 15)" fill="#163828" font-size="16" font-family="Raleway-Bold, Raleway" font-weight="700" letter-spacing="0.03em"><tspan x="-26" y="0">Weeks</tspan></text>
      </g>
    </g>
    <g id="Component_43_8" data-name="Component 43 – 8" transform="translate(534.085 2929)">
      <rect id="Rectangle_291-3" data-name="Rectangle 291" width="126" height="50" rx="10" transform="translate(0)" fill="rgba(0,168,90,0.2)"/>
      <g id="Group_836-2" data-name="Group 836" transform="translate(-645 16)">
        <path id="arrowdown-3" data-name="arrowdown" d="M8.984,11.586,15.2,19.974a1.7,1.7,0,0,0,2.886,0l6.218-8.389c.794-1.072.145-1.947-1.443-1.947H10.427c-1.587,0-2.238.877-1.443,1.948Z" transform="translate(732.355 -5.638)" fill="#00a85a"/>
        <text id="Januray" transform="translate(691 15)" fill="#00a85a" font-size="16" font-family="Raleway-Bold, Raleway" font-weight="700" letter-spacing="0.03em"><tspan x="-31" y="0">Januray</tspan></text>
      </g>
    </g>
    <line id="Line_12" data-name="Line 12" x2="769.788" transform="translate(-103.311 2908.216)" fill="none" stroke="#87ac9b" stroke-width="1"/>
    <g id="Group_840" data-name="Group 840" transform="translate(540.688 2863.834)">
      <text id="Year:_2021" data-name="Year: 2021" transform="translate(90.396 17.166)" fill="#648b7a" font-size="18" font-family="Raleway-Regular, Raleway" letter-spacing="0.03em"><tspan x="-89" y="0">Year: </tspan><tspan y="0" fill="#00a85a" font-family="Raleway-Bold, Raleway" font-weight="700">2021</tspan></text>
      <path id="arrowdown-4" data-name="arrowdown" d="M8.925,11.244l5.128,6.919a1.4,1.4,0,0,0,2.38,0l5.128-6.919c.655-.884.119-1.606-1.191-1.606H10.115c-1.309,0-1.846.723-1.191,1.607Z" transform="translate(97.194 -0.813)" fill="#00a85a"/>
    </g>
  </g>
</svg>
