<svg xmlns="http://www.w3.org/2000/svg" width="24" height="24.892" viewBox="0 0 24 24.892">
  <g id="Group_858" data-name="Group 858" transform="translate(-1139.999 0)">
    <path id="Path_607" data-name="Path 607" d="M26.166,7.505a1.269,1.269,0,0,1-1.774.164L20.529,4.448A1.264,1.264,0,0,1,22.152,2.51l3.863,3.221A1.258,1.258,0,0,1,26.166,7.505Zm-23.405,0a1.244,1.244,0,0,0,1.762.164L8.386,4.448a1.256,1.256,0,0,0-1.6-1.938L2.912,5.731a1.258,1.258,0,0,0-.151,1.774Zm11.7-3.045A11.325,11.325,0,1,0,25.789,15.785,11.326,11.326,0,0,0,14.464,4.46Z" transform="translate(1137.536 -2.219)" fill="#00a85a"/>
    <path id="Path_608" data-name="Path 608" d="M10.343,11.517h3.309L8.972,16.99a1.261,1.261,0,0,0,.956,2.076h5.449a1.258,1.258,0,0,0,0-2.517H12.067l4.681-5.474A1.261,1.261,0,0,0,15.792,9H10.343a1.258,1.258,0,1,0,0,2.517Z" transform="translate(1139.139 -0.695)" fill="#fff"/>
  </g>
</svg>
