<svg xmlns="http://www.w3.org/2000/svg" width="18.857" height="24" viewBox="0 0 18.857 24">
  <g id="location" transform="translate(-5.625 -2.25)">
    <path id="Path_1218" data-name="Path 1218" d="M16.987,18.224A4.612,4.612,0,1,1,21.6,13.612a4.612,4.612,0,0,1-4.612,4.612Zm0-7.379a2.767,2.767,0,1,0,2.767,2.767,2.767,2.767,0,0,0-2.767-2.767Z" transform="translate(-1.933 -1.825)" fill="#eff7f0"/>
    <path id="Path_1219" data-name="Path 1219" d="M15.054,26.25,7.822,17.722q-.151-.192-.3-.386a9.333,9.333,0,0,1-1.9-5.657,9.429,9.429,0,1,1,18.857,0,9.33,9.33,0,0,1-1.9,5.655v0s-.257.338-.3.383ZM8.892,16.3s.2.264.246.321L15.054,23.6l5.923-6.986c.037-.047.238-.313.239-.314a7.63,7.63,0,0,0,1.552-4.622,7.714,7.714,0,1,0-15.429,0A7.633,7.633,0,0,0,8.894,16.3Z" transform="translate(0 0)" fill="#eff7f0"/>
  </g>
</svg>
