<svg id="Messages" xmlns="http://www.w3.org/2000/svg" width="143" height="27" viewBox="0 0 143 27">
  <g id="Group_798" data-name="Group 798" transform="translate(-257 -364)">
    <text id="Reports" transform="translate(312 386)" fill="#648b7a" font-size="22" font-family="Raleway-Bold, Raleway" font-weight="700" letter-spacing="0.04em"><tspan x="0" y="0">Reports</tspan></text>
    <g id="md-analytics" transform="translate(254.75 360.625)">
      <path id="Path_605" data-name="Path 605" d="M24.793,12.473l-5.658,8.357a2.916,2.916,0,0,1,.7,1.9,3.117,3.117,0,0,1-6.229,0,3.2,3.2,0,0,1,.052-.558l-3.738-2.1a3.152,3.152,0,0,1-2.16.839,3.219,3.219,0,0,1-1.531-.388l-3.978,3.6V27.7a2.731,2.731,0,0,0,2.77,2.674H28.555a2.731,2.731,0,0,0,2.77-2.674V14.383l-3.8-2.437a3.2,3.2,0,0,1-2.732.526Z" fill="#648b7a"/>
      <path id="Path_606" data-name="Path 606" d="M7.766,15.258a3.254,3.254,0,0,1,3.115,3.375c0,.148-.013.3-.026.436l3.9,2.363a2.946,2.946,0,0,1,1.972-.759,3.029,3.029,0,0,1,.675.077l5.671-9.52a3.529,3.529,0,0,1-.578-1.955A3.254,3.254,0,0,1,25.609,5.9a3.254,3.254,0,0,1,3.115,3.375,3.991,3.991,0,0,1-.084.8l2.68,1.941V6.377a2.9,2.9,0,0,0-2.77-3H5.02a2.9,2.9,0,0,0-2.77,3V22.5l2.6-2.693a3.654,3.654,0,0,1-.195-1.174,3.254,3.254,0,0,1,3.115-3.375Z" fill="#648b7a"/>
    </g>
  </g>
</svg>
