<svg xmlns="http://www.w3.org/2000/svg" width="24" height="23.991" viewBox="0 0 24 23.991">
  <path id="phone" d="M24.6,27.366h-.157C6.307,26.324,3.733,11.024,3.373,6.356A2.768,2.768,0,0,1,5.92,3.375H11a1.845,1.845,0,0,1,1.717,1.162l1.4,3.451a1.845,1.845,0,0,1-.406,1.993l-1.965,1.984a8.646,8.646,0,0,0,6.994,7.013l2-1.984a1.845,1.845,0,0,1,2-.378l3.479,1.394a1.845,1.845,0,0,1,1.136,1.716V24.6A2.768,2.768,0,0,1,24.6,27.366ZM6.141,5.22a.923.923,0,0,0-.923.923v.074c.425,5.463,3.146,18.381,19.323,19.3a.923.923,0,0,0,.979-.867V19.726l-3.479-1.394-2.648,2.63-.443-.056C10.922,19.9,9.833,11.872,9.833,11.79l-.056-.443L12.4,8.7,11.013,5.22Z" transform="translate(-3.364 -3.375)" fill="#eff7f0"/>
</svg>
