<svg xmlns="http://www.w3.org/2000/svg" width="42.204" height="35.404" viewBox="0 0 42.204 35.404">
  <g id="Twitter" transform="translate(3 -45.082)" fill="none" stroke-linecap="round" stroke-linejoin="round">
    <path d="M32.483,55.41c.023.322.023.643.023.965,0,9.809-7.466,21.111-21.111,21.111A20.968,20.968,0,0,1,0,74.155a15.349,15.349,0,0,0,1.792.092A14.86,14.86,0,0,0,11,71.077a7.433,7.433,0,0,1-6.938-5.146,9.358,9.358,0,0,0,1.4.115,7.847,7.847,0,0,0,1.953-.253,7.421,7.421,0,0,1-5.95-7.282V58.42a7.473,7.473,0,0,0,3.354.942,7.431,7.431,0,0,1-2.3-9.924,21.091,21.091,0,0,0,15.3,7.765,8.377,8.377,0,0,1-.184-1.7,7.427,7.427,0,0,1,12.841-5.077,14.608,14.608,0,0,0,4.709-1.792,7.4,7.4,0,0,1-3.262,4.089A14.875,14.875,0,0,0,36.2,51.574,15.95,15.95,0,0,1,32.483,55.41Z" stroke="none"/>
    <path d="M 25.06252288818359 48.08202362060547 C 20.95052146911621 48.08202362060547 17.64251136779785 51.41294097900391 17.64251136779785 55.50202941894531 C 17.64251136779785 56.07633972167969 17.71146202087402 56.65058898925781 17.82629203796387 57.20192718505859 C 11.66982078552246 56.88026428222656 6.179450988769531 53.93988037109375 2.526863098144531 49.43733978271484 C 1.883602142333984 50.54001617431641 1.51611328125 51.80347442626953 1.51611328125 53.18177795410156 C 1.51611328125 55.75468444824219 2.825481414794922 58.02890014648438 4.824062347412109 59.36130523681641 C 3.606620788574219 59.31541442871094 2.457920074462891 58.97084045410156 1.470161437988281 58.41949462890625 L 1.470161437988281 58.51136016845703 C 1.470161437988281 62.11798858642578 4.0201416015625 65.10432434082031 7.420011520385742 65.79354858398438 C 6.799800872802734 65.95428466796875 6.133562088012695 66.04620361328125 5.467391967773438 66.04620361328125 C 4.984922409057617 66.04620361328125 4.525510787963867 66.000244140625 4.066032409667969 65.93138122558594 C 5.007911682128906 68.87181854248047 7.741601943969727 71.00821685791016 11.00365257263184 71.07716369628906 C 8.453731536865234 73.07573699951172 5.260560989379883 74.24728393554688 1.791820526123047 74.24728393554688 C 1.171543121337891 74.24728393554688 0.5973014831542969 74.22429656982422 0 74.15541839599609 C 3.285030364990234 76.26877593994141 7.190261840820312 77.48634338378906 11.39419174194336 77.48634338378906 C 25.03968048095703 77.48634338378906 32.50558090209961 66.18400573730469 32.50558090209961 56.37495422363281 C 32.50558090209961 56.05336761474609 32.50558090209961 55.73169708251953 32.48260116577148 55.41011047363281 C 33.92984008789062 54.35332489013672 35.19338226318359 53.04396820068359 36.20398330688477 51.57380676269531 C 34.87164306640625 52.14805603027344 33.42440032958984 52.5616455078125 31.93118095397949 52.72237396240234 C 33.47029113769531 51.80355834960938 34.64183044433594 50.35630798339844 35.19324111938477 48.63335418701172 C 33.76890182495117 49.48330688476562 32.16086196899414 50.10358428955078 30.48394203186035 50.42517852783203 C 29.1285514831543 48.97793579101562 27.19892120361328 48.08202362060547 25.06252288818359 48.08202362060547 M 25.06252288818359 45.08202362060547 C 26.52766036987305 45.08202362060547 27.9452018737793 45.37929534912109 29.27576065063477 45.965576171875 C 29.99051666259766 46.280517578125 30.66014099121094 46.66972351074219 31.27936553955078 47.12946319580078 C 32.1107177734375 46.86119079589844 32.91573333740234 46.49888610839844 33.65595245361328 46.05717468261719 C 34.72722244262695 45.41790771484375 36.08231353759766 45.50831604003906 37.05916213989258 46.28424072265625 C 37.96017074584961 46.99991607666016 38.36592864990234 48.16103363037109 38.12511825561523 49.26935577392578 C 38.26772308349609 49.38832092285156 38.40080261230469 49.52188110351562 38.52199172973633 49.66938781738281 C 39.37050247192383 50.70216369628906 39.43339157104492 52.17173767089844 38.67621231079102 53.27323913574219 C 37.76436614990234 54.59973907470703 36.70017623901367 55.79347229003906 35.50090408325195 56.83662414550781 C 35.38574600219727 62.53121185302734 33.14656448364258 68.24961853027344 29.31725120544434 72.59300231933594 C 27.16847229003906 75.03025817871094 24.60912132263184 76.94677734375 21.71028137207031 78.28932189941406 C 18.56249237060547 79.74716186523438 15.09165191650391 80.48634338378906 11.39419174194336 80.48634338378906 C 6.75050163269043 80.48634338378906 2.249191284179688 79.16958618164062 -1.623119354248047 76.67840576171875 C -2.796417236328125 75.923583984375 -3.294528961181641 74.45954895019531 -2.825008392333984 73.14578247070312 C -2.355476379394531 71.83203887939453 -1.042259216308594 71.01533508300781 0.3436813354492188 71.1751708984375 C 0.7761917114257812 71.22505187988281 1.222812652587891 71.24728393554688 1.791820526123047 71.24728393554688 C 2.478767395019531 71.24728393554688 3.155353546142578 71.19078063964844 3.817440032958984 71.07925415039062 C 2.642051696777344 69.92463684082031 1.733844757080078 68.48495483398438 1.209022521972656 66.84652709960938 C 1.061840057373047 66.38703918457031 1.029911041259766 65.90740966796875 1.105518341064453 65.44621276855469 C 1.021732330322266 65.35221099853516 0.939605712890625 65.25662231445312 0.8591423034667969 65.15941619873047 C -0.6814193725585938 63.29828643798828 -1.529838562011719 60.93729400634766 -1.529838562011719 58.51136016845703 L -1.529838562011719 58.41949462890625 C -1.529838562011719 57.74941253662109 -1.306278228759766 57.11085510253906 -0.9115829467773438 56.59536743164062 C -1.285823822021484 55.51322174072266 -1.48388671875 54.36167907714844 -1.48388671875 53.18177795410156 C -1.48388671875 51.30864715576172 -1.006317138671875 49.54023742675781 -0.06444931030273438 47.92566680908203 C 0.4319915771484375 47.07468414306641 1.314601898193359 46.52167510986328 2.296901702880859 46.4461669921875 C 3.279201507568359 46.37068939208984 4.235982894897461 46.78223419189453 4.856651306152344 47.54734802246094 C 7.392179489135742 50.67288970947266 10.90298461914062 52.84286499023438 14.78780555725098 53.75223541259766 C 15.14326667785645 51.63706207275391 16.14202499389648 49.68777465820312 17.68694114685059 48.13955688476562 C 19.65442085266113 46.16787719726562 22.27378082275391 45.08202362060547 25.06252288818359 45.08202362060547 Z" stroke="none" fill="#fff"/>
  </g>
</svg>
